# xmcd CD database file
#
# Track frame offsets:
#	150
#	13473
#	26137
#	42277
#	55942
#	71214
#	82840
#	98244
#	103834
#	119357
#
# Disc length: 1808 seconds
#
# Revision: 0
# Processed by: cddbd v1.5.1PL2 Copyright (c) Steve Scherf et al.
# Submitted via: Feurio! 1.68 - http://www.feurio.com
#
DISCID=89070e0a
DTITLE=Various Artist - Country Gospel Greats - 3
DYEAR=2003
DGENRE=Southern Gospel
TTITLE0=Lee Greenwood - Amazing Grace
TTITLE1=Jeanne Pruett - Uncloudy Day
TTITLE2=Jim Ed Brown - Whispering Hope
TTITLE3=Bobby Helms - What a Friend We Have in Jesus
TTITLE4=Melba Montgomery - No Charge
TTITLE5=Ned Miller - Will the Circle be Unbroken
TTITLE6=Charlie Louvin and John Conlee - When They Ring Those Golden Bells
TTITLE7=Narvel Felts - Rock of Ages
TTITLE8=Wanda Jackson - Jesus is the Answer
TTITLE9=J.D. Sumner and The Stamps - You'll Never Walk Alone
EXTD=
EXTT0=
EXTT1=
EXTT2=
EXTT3=
EXTT4=
EXTT5=
EXTT6=
EXTT7=
EXTT8=
EXTT9=
PLAYORDER=
